<?xml version="1.0" encoding="UTF-8" standalone="no"?>
<!-- Created with Inkscape (http://www.inkscape.org/) -->

<svg
   width="22.407005"
   height="32.000053"
   viewBox="0 0 5.9285202 8.4666805"
   version="1.1"
   id="svg928"
   inkscape:version="1.1 (c68e22c387, 2021-05-23)"
   sodipodi:docname="favicon.svg"
   xmlns:inkscape="http://www.inkscape.org/namespaces/inkscape"
   xmlns:sodipodi="http://sodipodi.sourceforge.net/DTD/sodipodi-0.dtd"
   xmlns="http://www.w3.org/2000/svg"
   xmlns:svg="http://www.w3.org/2000/svg">
  <sodipodi:namedview
     id="namedview930"
     pagecolor="#ffffff"
     bordercolor="#666666"
     borderopacity="1.0"
     inkscape:pageshadow="2"
     inkscape:pageopacity="0.0"
     inkscape:pagecheckerboard="0"
     inkscape:document-units="mm"
     showgrid="false"
     fit-margin-top="0"
     fit-margin-left="0"
     fit-margin-right="0"
     fit-margin-bottom="0"
     units="px"
     inkscape:zoom="11.745006"
     inkscape:cx="21.072787"
     inkscape:cy="24.904203"
     inkscape:window-width="1920"
     inkscape:window-height="1009"
     inkscape:window-x="-8"
     inkscape:window-y="-8"
     inkscape:window-maximized="1"
     inkscape:current-layer="layer1" />
  <defs
     id="defs925" />
  <g
     inkscape:label="Capa 1"
     inkscape:groupmode="layer"
     id="layer1"
     transform="translate(-132.19957,-94.526369)">
    <path
       id="rect1166-3-3-0"
       style="display:inline;fill:#0e0e0e;fill-opacity:1;fill-rule:evenodd;stroke:none;stroke-width:0.105833;stroke-linejoin:round;paint-order:markers fill stroke"
       d="m 132.89104,96.043349 c -0.38318,0 -0.69147,0.30828 -0.69147,0.69146 v 5.566771 c 0,0.38318 0.30829,0.69147 0.69147,0.69147 h 4.5456 c 0.38317,0 0.69145,-0.30828 0.69145,-0.69147 v -5.566771 c 0,-0.38318 -0.30828,-0.69146 -0.69145,-0.69146 h -0.72556 v 0.56433 c 0,0.0129 -0.002,0.0259 -0.003,0.0383 h 0.8496 v 5.775541 h -4.75535 v -5.775541 h 0.94468 c 5e-4,0.004 0.002,0.007 0.002,0.0103 -0.003,-0.0157 -0.005,-0.032 -0.005,-0.0486 v -0.56434 z m 0.87439,0.66768 c 0.002,0.005 0.005,0.0103 0.007,0.0155 -0.003,-0.005 -0.005,-0.0103 -0.007,-0.0155 z m 1.40564,1.18964 c -0.12543,4e-4 -0.25151,0.0141 -0.38035,0.0465 -0.17818,0.045 -0.36099,0.12559 -0.55296,0.25839 -0.20477,0.14889 -0.37212,0.34479 -0.48784,0.57054 -0.36062,0.70337 -0.16135,1.565561 0.47027,2.038181 0.63167,0.47267 1.5109,0.41625 2.0785,-0.13229 0.56758,-0.54852 0.65754,-1.430301 0.21188,-2.082631 -0.0196,-0.0318 -0.10229,-0.14018 -0.15194,-0.19017 l -1.0501,0.72349 c -0.11954,-0.0398 -0.25054,-0.022 -0.35451,0.0496 -0.18352,0.12653 -0.23021,0.37907 -0.10439,0.56329 0.12582,0.1842 0.37666,0.231 0.56019,0.10439 0.0992,-0.0685 0.16304,-0.1783 0.17365,-0.2987 l 0.51161,-0.35244 c 0.12078,0.35026 0.033,0.74943 -0.24393,1.017021 -0.34054,0.32908 -0.86748,0.36313 -1.24647,0.0796 -0.37901,-0.28357 -0.49994,-0.809461 -0.2894,-1.221681 0.13884,-0.32223 0.53474,-0.60442 1.0253,-0.52401 l 0.12195,-0.62841 c -0.0972,-0.0126 -0.1939,-0.0209 -0.29146,-0.0207 z m 0.006,1.53382 a 0.08052245,0.08088978 0 0 1 0.0186,0.001 0.08052245,0.08088978 0 0 1 0.0651,0.0941 0.08052245,0.08088978 0 0 1 -0.093,0.0651 0.08052245,0.08088978 0 0 1 -0.0651,-0.0941 0.08052245,0.08088978 0 0 1 0.0568,-0.063 0.08052245,0.08088978 0 0 1 0.0186,-0.002 z"
       inkscape:export-filename="C:\Users\Agustin Altamirano\Desktop\Nueva carpeta (2)\favicon.png"
       inkscape:export-xdpi="96"
       inkscape:export-ydpi="96" />
    <path
       id="rect2821-9-7-6"
       style="display:inline;fill:#0e0e0e;fill-opacity:1;fill-rule:evenodd;stroke:none;stroke-width:0.105833;stroke-linejoin:round;paint-order:markers fill stroke"
       d="m 135.25186,94.526369 a 0.56015505,0.55668193 0 0 0 -0.56014,0.5567 0.56015505,0.55668193 0 0 0 0.0897,0.30192 h -0.6757 c -0.14708,0 -0.2655,0.11759 -0.2655,0.26384 v 0.85669 c 0,0.14621 0.11843,0.26387 0.2655,0.26387 h 2.24273 c 0.14708,0 0.2655,-0.11761 0.2655,-0.26387 v -0.85669 c 0,-0.1462 -0.11843,-0.26384 -0.2655,-0.26384 h -0.62599 a 0.56015505,0.55668193 0 0 0 0.0896,-0.30192 0.56015505,0.55668193 0 0 0 -0.56018,-0.5567 z m -0.003,0.35299 a 0.20539019,0.20411669 0 0 1 0.20537,0.20414 0.20539019,0.20411669 0 0 1 -0.20537,0.20411 0.20539019,0.20411669 0 0 1 -0.2054,-0.20411 0.20539019,0.20411669 0 0 1 0.2054,-0.20414 z"
       inkscape:export-filename="C:\Users\Agustin Altamirano\Desktop\Nueva carpeta (2)\favicon.png"
       inkscape:export-xdpi="96"
       inkscape:export-ydpi="96" />
  </g>
</svg>
